<svg width="83" height="57" viewBox="0 0 83 57" fill="none" xmlns="http://www.w3.org/2000/svg">
<path d="M32.2565 30.1088C31.6098 30.1088 31.0235 29.9698 30.4976 29.6917C29.9778 29.4076 29.5668 29.0178 29.2645 28.5221C28.9684 28.0204 28.8203 27.4553 28.8203 26.8267C28.8203 26.198 28.9684 25.6359 29.2645 25.1403C29.5668 24.6386 29.9778 24.2487 30.4976 23.9707C31.0235 23.6866 31.6128 23.5445 32.2656 23.5445C32.8157 23.5445 33.3113 23.6412 33.7525 23.8347C34.1998 24.0281 34.5746 24.3061 34.8768 24.6688L33.9339 25.5392C33.5047 25.0436 32.9728 24.7957 32.3381 24.7957C31.9453 24.7957 31.5947 24.8834 31.2864 25.0587C30.9781 25.2279 30.7364 25.4667 30.5611 25.7749C30.3918 26.0832 30.3072 26.4338 30.3072 26.8267C30.3072 27.2196 30.3918 27.5701 30.5611 27.8784C30.7364 28.1867 30.9781 28.4284 31.2864 28.6037C31.5947 28.773 31.9453 28.8576 32.3381 28.8576C32.9728 28.8576 33.5047 28.6068 33.9339 28.1051L34.8768 28.9755C34.5746 29.3442 34.1998 29.6252 33.7525 29.8187C33.3053 30.0121 32.8066 30.1088 32.2565 30.1088ZM39.3064 27.7515V30H37.8376V27.7333L35.3806 23.6533H36.94L38.6355 26.4731L40.331 23.6533H41.7726L39.3064 27.7515ZM47.4387 26.6997C47.8014 26.8146 48.0855 27.008 48.291 27.28C48.4965 27.546 48.5993 27.8754 48.5993 28.2683C48.5993 28.8244 48.3817 29.2535 47.9465 29.5557C47.5173 29.8519 46.8887 30 46.0606 30H42.7785V23.6533H45.8793C46.653 23.6533 47.2453 23.8014 47.6563 24.0976C48.0734 24.3938 48.2819 24.7957 48.2819 25.3035C48.2819 25.6117 48.2064 25.8868 48.0553 26.1285C47.9102 26.3703 47.7047 26.5607 47.4387 26.6997ZM44.2382 24.7595V26.2555H45.6979C46.0606 26.2555 46.3356 26.192 46.523 26.0651C46.7104 25.9381 46.8041 25.7508 46.8041 25.5029C46.8041 25.2551 46.7104 25.0708 46.523 24.9499C46.3356 24.8229 46.0606 24.7595 45.6979 24.7595H44.2382ZM45.9518 28.8939C46.3387 28.8939 46.6288 28.8304 46.8222 28.7035C47.0217 28.5765 47.1214 28.3801 47.1214 28.1141C47.1214 27.5883 46.7315 27.3253 45.9518 27.3253H44.2382V28.8939H45.9518ZM55.0788 28.8213V30H50.1646V23.6533H54.9609V24.832H51.6244V26.2101H54.571V27.3525H51.6244V28.8213H55.0788ZM60.7445 30L59.5205 28.232H59.448H58.1696V30H56.7008V23.6533H59.448C60.0101 23.6533 60.4967 23.747 60.9077 23.9344C61.3248 24.1218 61.6451 24.3877 61.8688 24.7323C62.0924 25.0768 62.2042 25.4848 62.2042 25.9563C62.2042 26.4277 62.0894 26.8357 61.8597 27.1803C61.6361 27.5188 61.3157 27.7787 60.8986 27.96L62.3221 30H60.7445ZM60.7173 25.9563C60.7173 25.5996 60.6025 25.3276 60.3728 25.1403C60.1431 24.9468 59.8076 24.8501 59.3664 24.8501H58.1696V27.0624H59.3664C59.8076 27.0624 60.1431 26.9657 60.3728 26.7723C60.6025 26.5788 60.7173 26.3068 60.7173 25.9563Z" fill="#303030"/>
<path d="M35.04 30.4534V36.8H33.8341L30.6699 32.9467V36.8H29.2192V30.4534H30.4341L33.5893 34.3067V30.4534H35.04ZM41.9091 35.6214V36.8H36.9949V30.4534H41.7912V31.632H38.4547V33.0102H41.4013V34.1526H38.4547V35.6214H41.9091ZM44.8457 31.6502H42.8148V30.4534H48.3455V31.6502H46.3145V36.8H44.8457V31.6502ZM49.5891 30.4534H51.0579V36.8H49.5891V30.4534ZM56.0548 36.9088C55.408 36.9088 54.8217 36.7698 54.2958 36.4918C53.776 36.2077 53.365 35.8178 53.0628 35.3222C52.7666 34.8205 52.6185 34.2553 52.6185 33.6267C52.6185 32.9981 52.7666 32.436 53.0628 31.9403C53.365 31.4386 53.776 31.0488 54.2958 30.7707C54.8217 30.4866 55.411 30.3446 56.0638 30.3446C56.6139 30.3446 57.1095 30.4413 57.5508 30.6347C57.9981 30.8281 58.3728 31.1062 58.675 31.4688L57.7321 32.3392C57.3029 31.8436 56.771 31.5958 56.1364 31.5958C55.7435 31.5958 55.3929 31.6834 55.0846 31.8587C54.7764 32.028 54.5346 32.2667 54.3593 32.575C54.1901 32.8832 54.1054 33.2338 54.1054 33.6267C54.1054 34.0196 54.1901 34.3702 54.3593 34.6784C54.5346 34.9867 54.7764 35.2285 55.0846 35.4038C55.3929 35.573 55.7435 35.6576 56.1364 35.6576C56.771 35.6576 57.3029 35.4068 57.7321 34.9051L58.675 35.7755C58.3728 36.1442 57.9981 36.4253 57.5508 36.6187C57.1035 36.8121 56.6048 36.9088 56.0548 36.9088ZM62.1525 36.9088C61.6508 36.9088 61.1642 36.8424 60.6927 36.7094C60.2273 36.5704 59.8525 36.392 59.5685 36.1744L60.0671 35.0683C60.3391 35.2678 60.6625 35.428 61.0373 35.5488C61.412 35.6697 61.7868 35.7302 62.1615 35.7302C62.5786 35.7302 62.8869 35.6697 63.0863 35.5488C63.2858 35.4219 63.3855 35.2557 63.3855 35.0502C63.3855 34.8991 63.3251 34.7752 63.2042 34.6784C63.0893 34.5757 62.9382 34.4941 62.7509 34.4336C62.5695 34.3732 62.3217 34.3067 62.0074 34.2342C61.5238 34.1193 61.1279 34.0045 60.8197 33.8896C60.5114 33.7748 60.2454 33.5904 60.0218 33.3366C59.8042 33.0827 59.6954 32.7442 59.6954 32.3211C59.6954 31.9524 59.7951 31.62 59.9946 31.3238C60.1941 31.0216 60.4933 30.7828 60.8922 30.6075C61.2972 30.4322 61.7898 30.3446 62.3701 30.3446C62.775 30.3446 63.1709 30.3929 63.5578 30.4896C63.9446 30.5864 64.2831 30.7254 64.5733 30.9067L64.1199 32.0219C63.5336 31.6895 62.9473 31.5232 62.361 31.5232C61.95 31.5232 61.6447 31.5897 61.4453 31.7227C61.2518 31.8557 61.1551 32.031 61.1551 32.2486C61.1551 32.4662 61.2669 32.6294 61.4906 32.7382C61.7203 32.8409 62.0678 32.9437 62.5333 33.0464C63.0168 33.1613 63.4127 33.2761 63.721 33.391C64.0293 33.5058 64.2922 33.6872 64.5098 33.935C64.7334 34.1828 64.8453 34.5183 64.8453 34.9414C64.8453 35.304 64.7425 35.6365 64.537 35.9387C64.3375 36.2349 64.0353 36.4706 63.6303 36.6459C63.2253 36.8212 62.7327 36.9088 62.1525 36.9088Z" fill="#303030"/>
<path d="M24.4621 26.7946C24.5589 27.0564 24.8161 27.2455 25.1206 27.2455C25.5074 27.2455 25.8222 26.9421 25.8222 26.5692C25.8222 26.1963 25.5074 25.8928 25.1206 25.8928C24.8161 25.8928 24.5589 26.082 24.4621 26.3437H21.145V25.8928H22.0804V25.4419H21.145V24.5401H22.3143V25.2165C22.3143 25.3412 22.4191 25.4419 22.5481 25.4419H23.2928C23.3896 25.7037 23.6468 25.8928 23.9513 25.8928C24.3381 25.8928 24.6529 25.5894 24.6529 25.2165C24.6529 24.8436 24.3381 24.5401 23.9513 24.5401C23.6468 24.5401 23.3896 24.7293 23.2928 24.991H22.782V24.3147C22.782 24.19 22.6772 24.0892 22.5481 24.0892H21.145V23.8638H23.2497C23.3788 23.8638 23.4836 23.763 23.4836 23.6383V23.4129H24.4621C24.5589 23.6746 24.8161 23.8638 25.1206 23.8638C25.5074 23.8638 25.8222 23.5603 25.8222 23.1875C25.8222 22.8146 25.5074 22.5111 25.1206 22.5111C24.8161 22.5111 24.5589 22.7003 24.4621 22.962H23.2497C23.1206 22.962 23.0159 23.0628 23.0159 23.1875V23.4129H21.145V22.7366C21.145 22.6119 21.0402 22.5111 20.9111 22.5111H19.2741C18.3714 22.5111 17.637 23.2192 17.637 24.0892V26.3665C17.1041 26.4713 16.7016 26.9265 16.7016 27.471C16.7016 28.0188 17.1094 28.4756 17.6478 28.5766C17.706 29.4493 18.1317 30.2259 18.7795 30.7636L17.1555 31.2452C16.4645 31.4501 16 32.0566 16 32.7537V36.2634C16 36.3881 16.1048 36.4889 16.2339 36.4889H25.5884C25.7175 36.4889 25.8222 36.3881 25.8222 36.2634V32.7537C25.8222 32.0566 25.3578 31.4503 24.6667 31.2452L23.0428 30.7636C23.7408 30.1842 24.1852 29.3282 24.1852 28.3728V27.471C24.1852 27.3463 24.0804 27.2455 23.9513 27.2455H21.145V26.7946H24.4621ZM25.1206 26.3437C25.2495 26.3437 25.3545 26.4447 25.3545 26.5692C25.3545 26.6936 25.2495 26.7946 25.1206 26.7946C24.9918 26.7946 24.8868 26.6936 24.8868 26.5692C24.8868 26.4447 24.9918 26.3437 25.1206 26.3437ZM23.9513 24.991C24.0802 24.991 24.1852 25.092 24.1852 25.2165C24.1852 25.3409 24.0802 25.4419 23.9513 25.4419C23.8225 25.4419 23.7175 25.3409 23.7175 25.2165C23.7175 25.092 23.8225 24.991 23.9513 24.991ZM25.1206 22.962C25.2495 22.962 25.3545 23.063 25.3545 23.1875C25.3545 23.3119 25.2495 23.4129 25.1206 23.4129C24.9918 23.4129 24.8868 23.3119 24.8868 23.1875C24.8868 23.063 24.9918 22.962 25.1206 22.962ZM17.1693 27.471C17.1693 27.1774 17.3655 26.9294 17.637 26.8361V28.1056C17.3655 28.0125 17.1693 27.7645 17.1693 27.471ZM24.529 31.676C25.0226 31.8223 25.3545 32.2554 25.3545 32.7534V36.038H24.1852V33.5581H23.7175V36.038H18.1048V33.5581H17.637V36.038H16.4677V32.7537C16.4677 32.2556 16.7993 31.8226 17.293 31.6762L19.2589 31.0932C19.7446 31.3683 20.3082 31.529 20.9111 31.529C21.514 31.529 22.0776 31.3683 22.5633 31.093L24.529 31.676ZM23.7175 27.6964V28.3728C23.7175 29.8645 22.4586 31.0781 20.9111 31.0781C19.3636 31.0781 18.1048 29.8645 18.1048 28.3728V24.0892C18.1048 23.4677 18.6293 22.962 19.2741 22.962H20.6772V27.471C20.6772 27.5956 20.782 27.6964 20.9111 27.6964H23.7175Z" fill="#303030"/>
</svg>
