<svg width="135" height="45" viewBox="0 0 135 45" fill="none" xmlns="http://www.w3.org/2000/svg">
<path d="M43.032 23.288C41.32 23.288 39.768 22.92 38.376 22.184C37 21.432 35.912 20.4 35.112 19.088C34.328 17.76 33.936 16.264 33.936 14.6C33.936 12.936 34.328 11.448 35.112 10.136C35.912 8.808 37 7.776 38.376 7.04C39.768 6.288 41.328 5.912 43.056 5.912C44.512 5.912 45.824 6.168 46.992 6.68C48.176 7.192 49.168 7.928 49.968 8.888L47.472 11.192C46.336 9.88 44.928 9.224 43.248 9.224C42.208 9.224 41.28 9.456 40.464 9.92C39.648 10.368 39.008 11 38.544 11.816C38.096 12.632 37.872 13.56 37.872 14.6C37.872 15.64 38.096 16.568 38.544 17.384C39.008 18.2 39.648 18.84 40.464 19.304C41.28 19.752 42.208 19.976 43.248 19.976C44.928 19.976 46.336 19.312 47.472 17.984L49.968 20.288C49.168 21.264 48.176 22.008 46.992 22.52C45.808 23.032 44.488 23.288 43.032 23.288ZM61.6935 17.048V23H57.8055V17L51.3015 6.2H55.4295L59.9175 13.664L64.4055 6.2H68.2215L61.6935 17.048ZM83.2202 14.264C84.1802 14.568 84.9322 15.08 85.4762 15.8C86.0202 16.504 86.2922 17.376 86.2922 18.416C86.2922 19.888 85.7162 21.024 84.5642 21.824C83.4282 22.608 81.7642 23 79.5722 23H70.8842V6.2H79.0922C81.1402 6.2 82.7082 6.592 83.7962 7.376C84.9002 8.16 85.4522 9.224 85.4522 10.568C85.4522 11.384 85.2522 12.112 84.8522 12.752C84.4682 13.392 83.9242 13.896 83.2202 14.264ZM74.7482 9.128V13.088H78.6122C79.5722 13.088 80.3002 12.92 80.7962 12.584C81.2922 12.248 81.5402 11.752 81.5402 11.096C81.5402 10.44 81.2922 9.952 80.7962 9.632C80.3002 9.296 79.5722 9.128 78.6122 9.128H74.7482ZM79.2842 20.072C80.3082 20.072 81.0762 19.904 81.5882 19.568C82.1162 19.232 82.3802 18.712 82.3802 18.008C82.3802 16.616 81.3482 15.92 79.2842 15.92H74.7482V20.072H79.2842ZM103.444 19.88V23H90.4357V6.2H103.132V9.32H94.2997V12.968H102.1V15.992H94.2997V19.88H103.444ZM118.441 23L115.201 18.32H115.009H111.625V23H107.737V6.2H115.009C116.497 6.2 117.785 6.448 118.873 6.944C119.977 7.44 120.825 8.144 121.417 9.056C122.009 9.968 122.305 11.048 122.305 12.296C122.305 13.544 122.001 14.624 121.393 15.536C120.801 16.432 119.953 17.12 118.849 17.6L122.617 23H118.441ZM118.369 12.296C118.369 11.352 118.065 10.632 117.457 10.136C116.849 9.624 115.961 9.368 114.793 9.368H111.625V15.224H114.793C115.961 15.224 116.849 14.968 117.457 14.456C118.065 13.944 118.369 13.224 118.369 12.296Z" fill="#CC0F39"/>
<path d="M50.4 24.2V41H47.208L38.832 30.8V41H34.992V24.2H38.208L46.56 34.4V24.2H50.4ZM68.5828 37.88V41H55.5748V24.2H68.2708V27.32H59.4388V30.968H67.2388V33.992H59.4388V37.88H68.5828ZM76.3564 27.368H70.9804V24.2H85.6204V27.368H80.2444V41H76.3564V27.368ZM88.9123 24.2H92.8003V41H88.9123V24.2ZM106.027 41.288C104.315 41.288 102.763 40.92 101.371 40.184C99.9953 39.432 98.9073 38.4 98.1073 37.088C97.3233 35.76 96.9313 34.264 96.9313 32.6C96.9313 30.936 97.3233 29.448 98.1073 28.136C98.9073 26.808 99.9953 25.776 101.371 25.04C102.763 24.288 104.323 23.912 106.051 23.912C107.507 23.912 108.819 24.168 109.987 24.68C111.171 25.192 112.163 25.928 112.963 26.888L110.467 29.192C109.331 27.88 107.923 27.224 106.243 27.224C105.203 27.224 104.275 27.456 103.459 27.92C102.643 28.368 102.003 29 101.539 29.816C101.091 30.632 100.867 31.56 100.867 32.6C100.867 33.64 101.091 34.568 101.539 35.384C102.003 36.2 102.643 36.84 103.459 37.304C104.275 37.752 105.203 37.976 106.243 37.976C107.923 37.976 109.331 37.312 110.467 35.984L112.963 38.288C112.163 39.264 111.171 40.008 109.987 40.52C108.803 41.032 107.483 41.288 106.027 41.288ZM122.168 41.288C120.84 41.288 119.552 41.112 118.304 40.76C117.072 40.392 116.08 39.92 115.328 39.344L116.648 36.416C117.368 36.944 118.224 37.368 119.216 37.688C120.208 38.008 121.2 38.168 122.192 38.168C123.296 38.168 124.112 38.008 124.64 37.688C125.168 37.352 125.432 36.912 125.432 36.368C125.432 35.968 125.272 35.64 124.952 35.384C124.648 35.112 124.248 34.896 123.752 34.736C123.272 34.576 122.616 34.4 121.784 34.208C120.504 33.904 119.456 33.6 118.64 33.296C117.824 32.992 117.12 32.504 116.528 31.832C115.952 31.16 115.664 30.264 115.664 29.144C115.664 28.168 115.928 27.288 116.456 26.504C116.984 25.704 117.776 25.072 118.832 24.608C119.904 24.144 121.208 23.912 122.744 23.912C123.816 23.912 124.864 24.04 125.888 24.296C126.912 24.552 127.808 24.92 128.576 25.4L127.376 28.352C125.824 27.472 124.272 27.032 122.72 27.032C121.632 27.032 120.824 27.208 120.296 27.56C119.784 27.912 119.528 28.376 119.528 28.952C119.528 29.528 119.824 29.96 120.416 30.248C121.024 30.52 121.944 30.792 123.176 31.064C124.456 31.368 125.504 31.672 126.32 31.976C127.136 32.28 127.832 32.76 128.408 33.416C129 34.072 129.296 34.96 129.296 36.08C129.296 37.04 129.024 37.92 128.48 38.72C127.952 39.504 127.152 40.128 126.08 40.592C125.008 41.056 123.704 41.288 122.168 41.288Z" fill="#CC0F39"/>
<path d="M22.3996 15.3387C22.6559 16.0316 23.3369 16.5323 24.1429 16.5323C25.1668 16.5323 26 15.729 26 14.7419C26 13.7549 25.1668 12.9516 24.1429 12.9516C23.3369 12.9516 22.6559 13.4523 22.3996 14.1452H13.619V12.9516H16.0952V11.7581H13.619V9.37097H16.7143V11.1613C16.7143 11.4913 16.9916 11.7581 17.3333 11.7581H19.3044C19.5607 12.4509 20.2416 12.9516 21.0476 12.9516C22.0715 12.9516 22.9048 12.1484 22.9048 11.1613C22.9048 10.1742 22.0715 9.37097 21.0476 9.37097C20.2416 9.37097 19.5607 9.87166 19.3044 10.5645H17.9524V8.77419C17.9524 8.44418 17.675 8.17742 17.3333 8.17742H13.619V7.58065H19.1905C19.5322 7.58065 19.8095 7.31389 19.8095 6.98387V6.3871H22.3996C22.6559 7.07995 23.3369 7.58065 24.1429 7.58065C25.1668 7.58065 26 6.77739 26 5.79032C26 4.80326 25.1668 4 24.1429 4C23.3369 4 22.6559 4.50069 22.3996 5.19355H19.1905C18.8488 5.19355 18.5714 5.46031 18.5714 5.79032V6.3871H13.619V4.59677C13.619 4.26676 13.3417 4 13 4H8.66667C6.27714 4 4.33333 5.87447 4.33333 8.17742V14.2054C2.92252 14.4829 1.85714 15.6878 1.85714 17.129C1.85714 18.5792 2.93676 19.7883 4.36181 20.0556C4.51595 22.3657 5.64262 24.4216 7.35738 25.8449L3.05871 27.1196C1.22943 27.6621 0 29.2674 0 31.1126V40.4032C0 40.7332 0.277333 41 0.619048 41H25.381C25.7227 41 26 40.7332 26 40.4032V31.1126C26 29.2674 24.7706 27.6627 22.9413 27.1196L18.6426 25.8449C20.4905 24.3112 21.6667 22.0453 21.6667 19.5161V17.129C21.6667 16.799 21.3893 16.5323 21.0476 16.5323H13.619V15.3387H22.3996ZM24.1429 14.1452C24.484 14.1452 24.7619 14.4125 24.7619 14.7419C24.7619 15.0714 24.484 15.3387 24.1429 15.3387C23.8018 15.3387 23.5238 15.0714 23.5238 14.7419C23.5238 14.4125 23.8018 14.1452 24.1429 14.1452ZM21.0476 10.5645C21.3887 10.5645 21.6667 10.8319 21.6667 11.1613C21.6667 11.4907 21.3887 11.7581 21.0476 11.7581C20.7065 11.7581 20.4286 11.4907 20.4286 11.1613C20.4286 10.8319 20.7065 10.5645 21.0476 10.5645ZM24.1429 5.19355C24.484 5.19355 24.7619 5.4609 24.7619 5.79032C24.7619 6.11974 24.484 6.3871 24.1429 6.3871C23.8018 6.3871 23.5238 6.11974 23.5238 5.79032C23.5238 5.4609 23.8018 5.19355 24.1429 5.19355ZM3.09524 17.129C3.09524 16.352 3.61462 15.6956 4.33333 15.4485V18.809C3.61462 18.5625 3.09524 17.906 3.09524 17.129ZM22.5767 28.2601C23.8835 28.6474 24.7619 29.7938 24.7619 31.112V39.8065H21.6667V33.2419H20.4286V39.8065H5.57143V33.2419H4.33333V39.8065H1.2381V31.1126C1.2381 29.7944 2.1159 28.648 3.42271 28.2607L8.62643 26.7174C9.91219 27.4455 11.4041 27.871 13 27.871C14.5959 27.871 16.0878 27.4455 17.3736 26.7168L22.5767 28.2601ZM20.4286 17.7258V19.5161C20.4286 23.465 17.0962 26.6774 13 26.6774C8.90376 26.6774 5.57143 23.465 5.57143 19.5161V8.17742C5.57143 6.53211 6.95995 5.19355 8.66667 5.19355H12.381V17.129C12.381 17.459 12.6583 17.7258 13 17.7258H20.4286Z" fill="#CC0F39"/>
</svg>
